<svg xmlns="http://www.w3.org/2000/svg" viewBox="0 0 48 48">
    <path d="M24 4C23.5 4 23 4.0000781 22.5 4.0800781 A 14 14 0 0 0 11.5 24.300781 A 4.45 4.45 0 0 1 11.5 27.070312 A 3.94 3.94 0 0 0 11.150391 30.130859 A 4 4 0 0 0 14 32.880859 A 4.4 4.4 0 0 0 15 33 A 3.83 3.83 0 0 0 16.400391 32.740234 A 1.24 1.24 0 0 1 16.859375 32.660156 A 1.11 1.11 0 0 1 18 33.769531L18 34 A 5 5 0 0 0 23 39L25 39 A 5 5 0 0 0 30 34L30 33.769531 A 1.12 1.12 0 0 1 31.150391 32.660156 A 1.22 1.22 0 0 1 31.599609 32.740234 A 3.83 3.83 0 0 0 33 33 A 4.4 4.4 0 0 0 34 32.880859 A 4 4 0 0 0 36.839844 30.130859 A 3.94 3.94 0 0 0 36.490234 27.070312 A 4.41 4.41 0 0 1 36.490234 24.310547 A 14 14 0 0 0 24 4 z M 17.353516 20.003906 A 3.5 3.5 0 0 1 21 23.5 A 3.5 3.5 0 0 1 17.5 27 A 3.5 3.5 0 0 1 17.353516 20.003906 z M 30.353516 20.003906 A 3.5 3.5 0 0 1 34 23.5 A 3.5 3.5 0 0 1 30.5 27 A 3.5 3.5 0 0 1 30.353516 20.003906 z M 4.5 24 A 2.5 2.5 0 0 0 3.0039062 28.501953 A 2.5 2.5 0 0 0 4.5 33 A 2.5 2.5 0 0 0 6.9824219 30.777344L9.5507812 31.519531 A 5.86 5.86 0 0 1 9.2304688 30.660156 A 6.12 6.12 0 0 1 9.0605469 28.259766L6.7480469 27.589844 A 2.5 2.5 0 0 0 4.5 24 z M 43.5 24 A 2.5 2.5 0 0 0 41.251953 27.589844L38.939453 28.259766 A 6.12 6.12 0 0 1 38.769531 30.660156 A 5.86 5.86 0 0 1 38.449219 31.519531L41.017578 30.777344 A 2.5 2.5 0 0 0 43.5 33 A 2.5 2.5 0 0 0 44.996094 28.498047 A 2.5 2.5 0 0 0 43.5 24 z M 24 26C25.1 26 26 28.1 26 30C26 30.62 25.750625 31 25.140625 31L22.859375 31 A 0.94 0.94 0 0 1 22 30C22 28.1 22.9 26 24 26 z M 15.939453 34.910156L6.9960938 37.503906 A 2.5 2.5 0 0 0 4.5 35 A 2.5 2.5 0 0 0 3.6308594 39.84375 A 2.5 2.5 0 0 0 5.5 44 A 2.5 2.5 0 0 0 7.7480469 40.410156L17.089844 37.710938 A 6.88 6.88 0 0 1 16.060547 34.910156L15.939453 34.910156 z M 31.939453 34.919922 A 6.88 6.88 0 0 1 30.939453 37.720703L40.25 40.412109 A 2.5 2.5 0 0 0 42.5 44 A 2.5 2.5 0 0 0 44.371094 39.839844 A 2.5 2.5 0 0 0 43.5 35 A 2.5 2.5 0 0 0 41.003906 37.507812L32.060547 34.919922L31.939453 34.919922 z" fill="#767676"/>
</svg>
